<?xml version="1.0" encoding="utf-8"?>
<!-- Generator: Adobe Illustrator 24.1.0, SVG Export Plug-In . SVG Version: 6.00 Build 0)  -->
<svg version="1.1" id="Layer_1" xmlns="http://www.w3.org/2000/svg" xmlns:xlink="http://www.w3.org/1999/xlink" x="0px" y="0px"
	 viewBox="0 0 879.5 537.9" style="enable-background:new 0 0 879.5 537.9;" xml:space="preserve">
<style type="text/css">
	.st0{opacity:0.31;}
</style>
<path class="st0" d="M29.5,68.4c0.4-4,2.1-8.2,3.3-12s2-7.2,3.9-10.9c2.4-4.5,1.4-10.4,1.4-15.3c0,0.3,2.8-2.2,2.8-1.9
	c21.9,0,43.4,1.4,65.3,1.5c12.7,0.1,25.3-1.6,38-1.5c11.8,0.1,23.5,0,35.3,0.1c22.6,0.1,44.8-4.4,67.4-4.3c15.3,0.1,30.7,0.1,46.1,0
	c6.6,0,12.6,0.8,19.1,1.3s13.3,0.1,19.8,0.1c16.1,0,32.2,0,48.3,0c17.5,0.1,34.9-2.2,52.4-1.5c7.6,0.3,15,1.6,22.6,1.5
	s15.4-0.4,23-0.1c16.8,0.5,33.7,2.3,50.5,2.9c9.9,0.3,19.6,2.3,29.7,1.3c17.7-1.7,35.3-1.3,53.2-1.3c14.4,0,28.8,0,43.2,0
	c14.3,0,28.3-1.4,42.7-1.4c7.2,0,14.5,0.4,21.7,0.1c7-0.3,13.7-1.5,20.8-1.5c5.2,0,9.7,0.8,14.8,1.3c5.3,0.5,10.8,0.1,16.1,0.1h69.3
	c5,0,9.1,1.3,14,1.4c0.5,1.8-0.8,1.9-1.1,3.1c-0.4,1.7-0.5,3.5-0.3,5.3c0.1,3.6-0.9,6.6-1.3,10.2c-0.5,5.1-0.5,10.2,0.2,15.3
	c2.5,22.8-1.9,37.8,0.6,60.7c1.3,11.6-0.4,23.3,0.6,34.9c0.5,5.8,1.1,11.5,1.2,17.4c0.1,9.1-2.3,16.1-5.5,24.5
	c-4.3,11.6,7.3,32,6.9,44.3c-0.4,12.9,0.1,25.9,0.1,38.7V305c0,7.5-1.3,14.6-1.5,22c-0.2,8.5,0.1,17,0.1,25.5c0,7.6-0.6,15.5,0.1,23
	c0.6,6.5,2.2,13,2.8,19.5c0.5,5.7-0.1,11.6-0.1,17.3c0,7.3,1,15.4-0.3,22.5c-0.6,3.2-1.8,6.3-2.3,9.5c-0.5,3.5-0.3,6.9-1,10.3
	c-1.3,7.4-0.7,15.1-0.7,22.6c0,3,0.2,6,0.1,8.9c-0.2,3.3-1.4,6.4-1.5,9.7c-0.4,4.6-0.4,9.2,0,13.8c0.4,3.3,2.3,5.7,4.3,8.4
	c-22.2,0-44.3-4.7-66.3-6.7c-22.5-2-45.1-1.6-67.6-2.9s-45.3-0.4-67.9-0.3c-6.7,0-13.1-1.6-19.7-1.6c-7.7-0.1-16.1,1.3-23.8,1.9
	c-22,1.7-44.1,0-66.1,1.2c-18.3,0.9-36.6,3.6-55,4.9c-19.4,1.2-38.9,1.5-58.3,0.7c-6.2-0.2-12.3-1.6-18.5-1.5c-5.4,0-10.8,0-16.2,0
	c-17.9,0-35.6-1.4-53.5-1.4c-32.3,0.1-64.6,0.3-96.9,0c-6.2,0-12.5,0.7-18.6,2.1c-8.2,1.7-16.6,2.3-24.9,3.5
	c-14.1,2-28.4,2.9-42.7,2.8h-38.1c-9.8,0-21.5,1.5-30.9-0.7c-3.9-0.9-8.6-1.4-12.8-2c-5.2-0.7-10-2.3-15.2-3
	c-6.2-0.9-12.8,0.5-19-1.3c-2.1-0.6-2-1.9-4.7-1.4c-2,0.4-3.1,2.1-4.9,2.7c-0.4-3.8-0.4-7.6,0-11.4c0.9-12.9,2.7-25.6,2.9-38.5
	c0.3-18.7-3.3-36.3-5.8-54.8c-2.5-19.2,9.9-38.3,9.7-57.6c-0.6-35-4.2-70.1-5.6-105.1c-1.1-30.3-5.9-45.8-3-76
	c1.8-18.3,5.1-38.6,5-57"/>
</svg>
