<?xml version="1.0" encoding="utf-8"?>
<!-- Generator: Adobe Illustrator 24.1.0, SVG Export Plug-In . SVG Version: 6.00 Build 0)  -->
<svg version="1.1" id="Layer_1" xmlns="http://www.w3.org/2000/svg" xmlns:xlink="http://www.w3.org/1999/xlink" x="0px" y="0px"
	 viewBox="0 0 580 22" style="enable-background:new 0 0 580 22;" xml:space="preserve">
<style type="text/css">
	.st0{fill:none;stroke:#CC4100;stroke-miterlimit:10;}
</style>
<path class="st0" d="M11.3,11.8c17.6,0,35.2,0.7,52.8,0.7c11.7,0,23.3,0.2,35-0.4c11-0.6,22-1.5,33-2.5c9.9-0.9,19.6-1.8,29.5-1.3
	c9.5,0.4,18.9,1.9,28.4,2c17.6,0.3,35.2,0.7,52.7,0.7c6.9,0,13.9-0.2,20.9-0.1c7.3,0.1,14.3,1.3,21.5,2s14.4,1.3,21.6,1.5
	c7.8,0.2,15.4-0.7,23.2-1.4c15.2-1.3,30.3-0.5,45.4,0.2c13.5,0.7,27,1.3,40.4-0.7c11.9-1.8,23.8-1.8,35.8-1.6
	c12.8,0.2,25.6,1.1,38.4,0.6c9.4-0.4,19-1.3,28.4-1.3c6.6,0,13-0.8,19.6-0.7c5.3,0,11.1,0.6,16.4-0.1c4.8-0.7,9.5-1.6,14.4-2"/>
</svg>
