<?xml version="1.0" encoding="utf-8"?>
<!-- Generator: Adobe Illustrator 24.1.0, SVG Export Plug-In . SVG Version: 6.00 Build 0)  -->
<svg version="1.1" id="Layer_1" xmlns="http://www.w3.org/2000/svg" xmlns:xlink="http://www.w3.org/1999/xlink" x="0px" y="0px"
	 viewBox="0 0 580 100" style="enable-background:new 0 0 580 100;" xml:space="preserve">
<style type="text/css">
	.st0{fill:none;stroke:#231F20;stroke-miterlimit:10;}
</style>
<path class="st0" d="M8.2,54.3c7.8-0.2,15.5-0.6,23.3-0.8c12.1-0.2,24.2,0.3,36.4,1c21,1.3,41.9,1.8,63,1.8c17.4,0,34.8,0,52.2-1.1
	c6-0.4,11.9-1.2,17.8-1.6c7.7-0.4,15.5-0.3,23.2,0.1c9.4,0.3,17.9,0.7,27.3-0.8c7.5-1.2,14.8,1.9,22.4,0.8
	c13.1-1.9,26.6-0.5,39.9-1.3c8.9-0.5,17.8,1,26.6,0.9c9.4,0,18.7-0.6,28.1-0.9c16.9-0.6,33.9-2,50.8-2c13.2,0,26.3,0.7,39.4,1.3
	c19,0.8,38.3-3.9,57.4-3.9c5,0,10,3,14.9,3c5.5,0,10.9-1.2,16.4-0.6c8.3,0.8,16.2,0.5,24.6,0.5"/>
</svg>
