<?xml version="1.0" encoding="utf-8"?>
<!-- Generator: Adobe Illustrator 24.1.0, SVG Export Plug-In . SVG Version: 6.00 Build 0)  -->
<svg version="1.1" id="Layer_1" xmlns="http://www.w3.org/2000/svg" xmlns:xlink="http://www.w3.org/1999/xlink" x="0px" y="0px"
	 viewBox="0 0 580 22" style="enable-background:new 0 0 580 22;" xml:space="preserve">
<style type="text/css">
	.st0{fill:none;stroke:#CC4100;stroke-miterlimit:10;}
</style>
<path class="st0" d="M16.2,11.8C27,9,37,11.6,47.5,13.9c6.1,1.4,12.9,2.5,19.2,1.5c5-0.8,9.8-2,14.9-2.2c9.2-0.4,18.3,0.6,27.4,1.1
	c5.3,0.3,10.6,1.1,15.9,1c6.2-0.2,12.5-1.6,18.7-2.1c6.4-0.6,13-1.3,19.5-1.3s13.2,0.2,19.8,0.3c30.3,0.6,60.8,5,90.9,0.8
	c7.6-1,14.9-2.5,22.6-3.1c7.4-0.5,14.9-0.4,22.3,0.2c16.2,1.2,32.5,0.9,48.8,1.3c19.8,0.5,39.5-0.6,59.3-0.8
	c12.6-0.1,25.3,0.2,37.9,1.1c14.8,1.1,29.8,0.7,44.6,1c10,0.2,20.4-1.5,30.1,1c3,0.7,5.9,1.8,8.8,2.4c2.5,0.5,6.2,0.4,8.8,0.3
	c2.3,0,4.5-1.9,6.8-1.8"/>
</svg>
