<?xml version="1.0" encoding="utf-8"?>
<!-- Generator: Adobe Illustrator 24.1.0, SVG Export Plug-In . SVG Version: 6.00 Build 0)  -->
<svg version="1.1" id="Layer_1" xmlns="http://www.w3.org/2000/svg" xmlns:xlink="http://www.w3.org/1999/xlink" x="0px" y="0px"
	 viewBox="0 0 500 500" style="enable-background:new 0 0 500 500;" xml:space="preserve">
<style type="text/css">
	.st0{stroke:#FFFFFF;stroke-width:8;stroke-miterlimit:10;}
	.st1{fill:#FFFFFF;}
	.st2{fill:none;stroke:#FFFFFF;stroke-width:16.25;stroke-miterlimit:10;}
</style>
<path class="st0" d="M250,10C117.4,10,10,117.5,10,250s107.4,240,240,240s240-107.5,240-240S382.5,10,250,10"/>
<path class="st1" d="M133.7,272c-0.1-9.6,1.7-19.2,5.2-28.2c3.3-8.6,8.3-16.4,14.6-23.1c6.3-6.6,13.7-12,22-15.7
	c8.8-4,18.4-6,28-5.9c10.8,0,20.3,2,28.6,6c8,3.8,15.2,9.1,21.1,15.6c6.5-6.2,13.9-11.4,21.9-15.3c8.7-4.3,18.2-6.4,27.9-6.3
	c9.6-0.1,19.1,1.9,27.9,5.9c17,7.6,30.3,21.5,37,38.9c3.5,9,5.3,18.6,5.2,28.2v118.7c0.1,4.4-1.7,8.6-4.8,11.7
	c-3,3.1-7.1,4.8-11.4,4.8c-9.1,0.1-16.4-7.2-16.5-16.3c0-0.1,0-0.1,0-0.2V272c0-5.3-0.9-10.5-2.7-15.4c-1.7-4.7-4.3-9-7.6-12.8
	c-7-7.6-16.8-11.9-27.1-11.7c-9.6-0.3-18.8,4.1-24.6,11.7c-2.9,3.8-5.1,8.1-6.5,12.8c-1.5,5-2.3,10.2-2.2,15.5v88.7
	c0.1,9.1-7.2,16.4-16.3,16.5c-0.1,0-0.1,0-0.2,0c-4.4,0.1-8.6-1.6-11.6-4.8c-3.1-3.1-4.7-7.3-4.6-11.7v-89c0-5.2-0.8-10.4-2.4-15.3
	c-1.5-4.5-3.7-8.8-6.6-12.6c-2.8-3.6-6.4-6.5-10.5-8.6c-4.4-2.1-9.2-3.2-14.1-3.1c-5.2,0-10.3,1-15,3.1c-4.5,2-8.5,4.9-11.9,8.6
	c-3.4,3.7-6,8-7.6,12.8c-1.8,4.9-2.7,10.2-2.7,15.5v106.6c0.1,9.1-7.2,16.4-16.3,16.5c-0.1,0-0.1,0-0.2,0c-4.4,0.1-8.6-1.6-11.6-4.8
	c-3.1-3.1-4.7-7.3-4.6-11.7L133.7,272z"/>
<line class="st2" x1="321.8" y1="213.5" x2="360.8" y2="105.1"/>
<ellipse transform="matrix(0.9813 -0.1925 0.1925 0.9813 -13.5339 71.3525)" class="st1" cx="360.4" cy="105.3" rx="15" ry="16.5"/>
<line class="st2" x1="180.2" y1="225.3" x2="121.2" y2="126.3"/>
<ellipse class="st1" cx="121.6" cy="126.5" rx="15" ry="16.5"/>
</svg>
